# xmcd
#
# Track frame offsets: 
#        150
#        5481
#        21758
#        37947
#        55202
#        74868
#        86575
#        99811
#        117398
#        131231
#        146940
#        158446
#        173260
#        188099
#        207546
#        223381
#
# Disc length: 3703 seconds
#
# Revision: 0
# Processed by: cddbd v1.5.2PL0 Copyright (c) Steve Scherf et al.
# Submitted via: ExactAudioCopyFreeDBPlugin 1.0
#
DISCID=e50e7510
DTITLE=The Perch Creek Family Jugband - Tall Tales
DYEAR=2011
DGENRE=Acoustic
TTITLE0=Intro
TTITLE1=Captain Thunderbolt (You Better Run)
TTITLE2=Way Down Gone
TTITLE3=Nobody Knows You When You're Down And Out
TTITLE4=Goodnight Irene
TTITLE5=Rainy Day
TTITLE6=The Good Old Mountain Dew
TTITLE7=Rob This Town
TTITLE8=Me Oh My
TTITLE9=Minnie The Moocher
TTITLE10=Oh Susanna
TTITLE11=How Long Blues
TTITLE12=I Feel Pessimistic
TTITLE13=How Did The Young Man Lose His Leg?
TTITLE14=Matilda's Lullaby
TTITLE15=Outro
EXTD=
EXTT0=
EXTT1=
EXTT2=
EXTT3=
EXTT4=
EXTT5=
EXTT6=
EXTT7=
EXTT8=
EXTT9=
EXTT10=
EXTT11=
EXTT12=
EXTT13=
EXTT14=
EXTT15=
PLAYORDER=
